<svg xmlns="http://www.w3.org/2000/svg" viewBox="0 0 1920 1080" preserveAspectRatio="xMidYMid slice">
  <defs>
    <linearGradient id="bg" x1="0" x2="1" y1="0" y2="1">
      <stop offset="0%" stop-color="#24355a"/>
      <stop offset="50%" stop-color="#1a2745"/>
      <stop offset="100%" stop-color="#131b31"/>
    </linearGradient>
  </defs>
  <rect width="1920" height="1080" fill="url(#bg)"/>
  <g stroke="#8ec3ff" stroke-opacity="0.25" stroke-width="3">
    <path d="M140 0 L20 220"/><path d="M260 0 L130 260"/><path d="M380 0 L250 270"/><path d="M500 0 L380 240"/>
    <path d="M620 0 L500 250"/><path d="M740 0 L620 255"/><path d="M860 0 L730 260"/><path d="M980 0 L860 245"/>
    <path d="M1100 0 L980 230"/><path d="M1220 0 L1110 240"/><path d="M1340 0 L1230 250"/><path d="M1460 0 L1350 255"/>
    <path d="M1580 0 L1470 245"/><path d="M1700 0 L1590 238"/><path d="M1820 0 L1710 252"/>
  </g>
  <g fill="#1b223d">
    <polygon points="0,1080 0,540 360,470 360,1080"/>
    <polygon points="1920,1080 1920,500 1500,430 1500,1080"/>
  </g>
  <g fill="#2be8ff" opacity="0.62">
    <rect x="125" y="580" width="180" height="22" rx="10"/>
    <rect x="1580" y="560" width="220" height="24" rx="10"/>
    <rect x="1540" y="650" width="180" height="22" rx="10"/>
  </g>
  <rect x="0" y="840" width="1920" height="240" fill="#0f1528"/>
  <g fill="#0b1021" opacity="0.95">
    <ellipse cx="960" cy="914" rx="160" ry="42"/>
    <path d="M960 710 C920 720 900 756 910 802 L926 896 L994 896 L1008 818 C1014 778 998 728 960 710 Z"/>
    <circle cx="960" cy="680" r="40"/>
  </g>
  <ellipse cx="960" cy="930" rx="220" ry="24" fill="#58b9ff" opacity="0.22"/>
</svg>
