<svg xmlns="http://www.w3.org/2000/svg" viewBox="0 0 1920 1080" preserveAspectRatio="xMidYMid slice">
  <defs>
    <linearGradient id="bg" x1="0" x2="1" y1="0" y2="1">
      <stop offset="0%" stop-color="#090b17"/>
      <stop offset="50%" stop-color="#180f2b"/>
      <stop offset="100%" stop-color="#06161d"/>
    </linearGradient>
  </defs>
  <rect width="1920" height="1080" fill="url(#bg)"/>
  <g stroke="#0ff6ff" stroke-opacity="0.25" stroke-width="2">
    <path d="M0 860 H1920"/><path d="M0 910 H1920"/><path d="M0 960 H1920"/>
    <path d="M130 760 L960 760 L1790 760"/>
  </g>
  <g fill="#14203b">
    <rect x="80" y="480" width="210" height="600"/>
    <rect x="320" y="420" width="180" height="660"/>
    <rect x="530" y="520" width="220" height="560"/>
    <rect x="790" y="370" width="240" height="710"/>
    <rect x="1070" y="500" width="210" height="580"/>
    <rect x="1310" y="430" width="220" height="650"/>
    <rect x="1570" y="510" width="210" height="570"/>
  </g>
  <g stroke="#ff3fb2" stroke-width="6" stroke-linecap="round" opacity="0.78">
    <path d="M120 620 H250"/><path d="M350 550 H470"/><path d="M560 640 H710"/>
    <path d="M820 500 H990"/><path d="M1110 630 H1240"/><path d="M1340 560 H1510"/>
  </g>
  <circle cx="1580" cy="220" r="140" fill="#09efff" opacity="0.2"/>
  <circle cx="320" cy="170" r="120" fill="#ff4fb9" opacity="0.16"/>
</svg>
